<svg width="512" height="512" viewBox="0 0 512 512" fill="none" xmlns="http://www.w3.org/2000/svg">
<path fill-rule="evenodd" clip-rule="evenodd" d="M453.844 264.469C450.526 354.889 394.16 429.087 309.637 444.89C303.387 448.169 290.393 450 268.499 450C201.499 450 144.937 430.938 95.9994 382C47.0615 333.062 23.479 280.02 34.9994 268.5C44.6292 260.998 62.7303 264.244 84.1688 274.471C82.7405 264.94 81.9994 255.261 81.9994 245.5C81.9994 139.461 169.461 61.5 275.499 61.5C351.379 61.5 410.064 106.797 437.309 171.418C447.9 165.65 457.713 163.646 465.845 166.634C480.739 174.01 483.893 216.774 453.844 264.469ZM282.031 173.282L286.978 169.709C288.025 172.107 289.786 174.549 292.291 176.983C296.034 180.621 301.116 183.915 306.834 186.626C318.503 192.158 331.252 194.555 338.143 193.56C349.411 191.932 355.897 185.5 359.452 176.954L362.698 169.149L368.995 174.789C377.154 182.097 388.226 185.674 396.641 184.458C403.11 183.523 407.082 180.011 409.415 174.415C411.558 169.275 412.3 162.294 411.546 154.098L417.823 159.002C418.101 175.48 412.194 188.273 397.499 190.396C388.765 191.658 378.425 188.825 369.878 183.06C368.168 181.907 366.53 180.637 364.992 179.258C364.193 181.177 363.26 183.02 362.178 184.76C357.507 192.282 350.086 197.896 339.001 199.498C323.758 201.701 290.861 190.716 282.031 173.282ZM397.499 190.397C404.652 189.364 409.722 185.803 413.011 180.52C414.791 184.344 416.131 188.803 416.83 193.641C419.12 209.492 413.665 223.399 404.646 224.702C395.627 226.005 386.459 214.212 384.169 198.36C383.722 195.267 383.57 192.247 383.682 189.381C388.406 190.639 393.152 191.026 397.499 190.397ZM320.831 197.911C327.762 199.589 334.242 200.187 339.001 199.499C343.841 198.8 347.982 197.336 351.501 195.282C352.533 198.184 353.324 201.353 353.808 204.703C356.099 220.555 350.644 234.462 341.625 235.765C332.606 237.068 323.438 225.274 321.147 209.422C320.567 205.402 320.484 201.507 320.831 197.911ZM261 255C266.111 256.694 271.117 258.227 276.018 259.61L295.855 305.632C298.695 312.221 308.278 311.443 310.018 304.482L319.005 268.536C321.278 268.831 323.519 269.092 325.727 269.32L331.327 284.441C333.626 290.646 342.248 291.052 345.118 285.09L352.085 270.619C354.887 270.598 357.615 270.523 360.269 270.4L364.208 282.913C366.318 289.614 375.657 289.996 378.308 283.49L384.749 267.681C385.955 267.461 387.136 267.232 388.293 266.994L392.179 294.478C393.214 301.791 403.081 303.364 406.337 296.735L419.419 270.104C413.296 315.901 394.733 367.3 368.756 386.609L368.611 386.716L368.538 386.77C366.002 388.635 363.396 390.193 360.724 391.411C360.487 391.519 360.25 391.624 360.012 391.727C355.827 393.532 351.484 394.5 346.999 394.5C317.997 394.5 300.533 375.782 282.856 327.33C282.173 325.46 281.49 323.545 280.807 321.585C274.469 303.42 268.047 281.393 261 255ZM299.999 326C320.373 326 338.742 331.491 352.404 340.272C365.2 348.497 373.537 359.355 376.13 371.061C366.775 382.528 356.909 388.5 346.999 388.5C333.598 388.5 323.282 384.143 313.963 373.798C305.192 364.061 297.204 348.898 288.959 326.546C292.562 326.186 296.248 326 299.999 326ZM164.499 295.001C123.5 271.503 93.4977 216.501 107.5 202.501C121.559 188.441 147.671 196.304 182.118 206.678L182.118 206.678C189.973 209.043 198.262 211.539 206.941 213.936L204.143 219.387C195.82 217.07 187.852 214.671 180.349 212.411C178.104 211.735 175.9 211.071 173.741 210.426C163.352 207.322 154.022 204.655 145.696 202.931C128.559 199.383 118.101 200.385 111.743 206.744C110.454 208.032 109.237 211.413 110.619 218.39C111.929 225.004 115.315 233.28 120.542 242.141C130.999 259.869 148.057 278.662 167.483 289.796L167.885 290.026L165.05 295.55C164.867 295.368 164.684 295.186 164.499 295.001Z"/>
</svg>
